<?xml version="1.0" encoding="UTF-8"?><svg xmlns="http://www.w3.org/2000/svg" viewBox="0 0 620 167"><defs><style>.cls-1,.cls-2{letter-spacing:-.02em;}.cls-2,.cls-3,.cls-4{font-family:Helvetica, Helvetica;}.cls-2,.cls-3,.cls-4,.cls-5{fill:#1c1c1b;}.cls-2,.cls-4{font-size:18px;}.cls-3{font-size:12px;}.cls-6,.cls-7{fill:none;stroke:#1c1c1b;stroke-miterlimit:10;}.cls-5,.cls-8{stroke-width:0px;}.cls-8{fill:#d9dada;}.cls-7{stroke-width:.5px;}</style></defs><g id="Drawing"><path class="cls-8" d="m618.64,78.26l-4.25,8.96c-.94,1.97-3.65,2.19-4.89.39l-15.98-23.17c-1.24-1.8-3.96-1.58-4.89.39l-12.07,25.43c-.94,1.97-3.65,2.19-4.89.39l-15.98-23.17c-1.24-1.8-3.96-1.58-4.89.39l-12.07,25.43c-.94,1.97-3.65,2.19-4.89.39l-15.98-23.17c-1.24-1.8-3.96-1.58-4.89.39l-12.07,25.43c-.94,1.97-3.65,2.19-4.89.39l-15.98-23.17c-1.24-1.8-3.96-1.58-4.89.39l-12.07,25.43c-.94,1.97-3.65,2.19-4.89.39l-15.98-23.17c-1.24-1.8-3.96-1.58-4.89.39l-12.07,25.43c-.94,1.97-3.65,2.19-4.89.39l-15.98-23.17c-1.24-1.8-3.96-1.58-4.89.39l-12.07,25.43c-.94,1.97-3.65,2.19-4.89.39l-15.98-23.17c-1.24-1.8-3.96-1.58-4.89.39l-12.07,25.43c-.94,1.97-3.65,2.19-4.89.39l-15.98-23.17c-1.24-1.8-3.96-1.58-4.89.39l-12.07,25.43c-.94,1.97-3.65,2.19-4.89.39l-15.98-23.17c-1.24-1.8-3.96-1.58-4.89.39l-12.07,25.43c-.94,1.97-3.65,2.19-4.89.39l-15.98-23.17c-1.24-1.8-3.96-1.58-4.89.39l-12.07,25.43c-.94,1.97-3.65,2.19-4.89.39l-15.98-23.17c-1.24-1.8-3.96-1.58-4.89.39l-12.07,25.43c-.94,1.97-3.65,2.19-4.89.39l-15.98-23.17c-1.24-1.8-3.96-1.58-4.89.39l-12.07,25.43c-.94,1.97-3.65,2.19-4.89.39l-15.98-23.17c-1.24-1.8-3.96-1.58-4.89.39l-12.07,25.43c-.94,1.97-3.65,2.19-4.89.39l-15.98-23.17c-1.24-1.8-3.96-1.58-4.89.39l-12.07,25.43c-.94,1.97-3.65,2.19-4.89.39l-15.98-23.17c-1.24-1.8-3.96-1.58-4.89.39l-12.07,25.43c-.94,1.97-3.65,2.19-4.89.39l-15.98-23.17c-1.24-1.8-3.96-1.58-4.89.39l-12.07,25.43c-.94,1.97-3.65,2.19-4.89.39l-2.67-3.87v33.88h617.31v-88.08Z"/><path class="cls-6" d="m618.63,78.26l-4.25,8.96c-.94,1.97-3.65,2.19-4.89.39l-15.98-23.17c-1.24-1.8-3.96-1.58-4.89.39l-12.07,25.43c-.94,1.97-3.65,2.19-4.89.39l-15.98-23.17c-1.24-1.8-3.96-1.58-4.89.39l-12.07,25.43c-.94,1.97-3.65,2.19-4.89.39l-15.98-23.17c-1.24-1.8-3.96-1.58-4.89.39l-12.07,25.43c-.94,1.97-3.65,2.19-4.89.39l-15.98-23.17c-1.24-1.8-3.96-1.58-4.89.39l-12.07,25.43c-.94,1.97-3.65,2.19-4.89.39l-15.98-23.17c-1.24-1.8-3.96-1.58-4.89.39l-12.07,25.43c-.94,1.97-3.65,2.19-4.89.39l-15.98-23.17c-1.24-1.8-3.96-1.58-4.89.39l-12.07,25.43c-.94,1.97-3.65,2.19-4.89.39l-15.98-23.17c-1.24-1.8-3.96-1.58-4.89.39l-12.07,25.43c-.94,1.97-3.65,2.19-4.89.39l-15.98-23.17c-1.24-1.8-3.96-1.58-4.89.39l-12.07,25.43c-.94,1.97-3.65,2.19-4.89.39l-15.98-23.17c-1.24-1.8-3.96-1.58-4.89.39l-12.07,25.43c-.94,1.97-3.65,2.19-4.89.39l-15.98-23.17c-1.24-1.8-3.96-1.58-4.89.39l-12.07,25.43c-.94,1.97-3.65,2.19-4.89.39l-15.98-23.17c-1.24-1.8-3.96-1.58-4.89.39l-12.07,25.43c-.94,1.97-3.65,2.19-4.89.39l-15.98-23.17c-1.24-1.8-3.96-1.58-4.89.39l-12.07,25.43c-.94,1.97-3.65,2.19-4.89.39l-15.98-23.17c-1.24-1.8-3.96-1.58-4.89.39l-12.07,25.43c-.94,1.97-3.65,2.19-4.89.39l-15.98-23.17c-1.24-1.8-3.96-1.58-4.89.39l-12.07,25.43c-.94,1.97-3.65,2.19-4.89.39l-15.98-23.17c-1.24-1.8-3.96-1.58-4.89.39l-12.07,25.43c-.94,1.97-3.65,2.19-4.89.39l-15.98-23.17c-1.24-1.8-3.96-1.58-4.89.39l-12.07,25.43c-.94,1.97-3.65,2.19-4.89.39l-2.67-3.87"/></g><g id="Dimensions"><line class="cls-7" x1="174.67" y1="96.72" x2="171.13" y2="52.76"/><line class="cls-7" x1="212.51" y1="93.67" x2="208.98" y2="49.71"/><line class="cls-7" x1="179.4" y1="61.82" x2="201.8" y2="60.02"/><polygon class="cls-5" points="181.38 64.28 171.45 62.46 180.96 59.07 181.38 64.28"/><polygon class="cls-5" points="200.24 62.77 209.75 59.38 199.82 57.55 200.24 62.77"/><text class="cls-2" transform="translate(184.47 57.55) rotate(-4.6)"><tspan x="0" y="0">P</tspan></text><line class="cls-7" x1="477.79" y1="88.18" x2="477.79" y2="98.63"/><polygon class="cls-5" points="475.18 96.85 477.79 106.6 480.41 96.85 475.18 96.85"/><line class="cls-7" x1="477.79" y1="163.36" x2="477.79" y2="152.91"/><polygon class="cls-5" points="480.41 154.69 477.8 144.93 475.18 154.69 480.41 154.69"/><line class="cls-7" x1="250.36" y1="90.63" x2="246.82" y2="46.67"/><line class="cls-7" x1="590.94" y1="63.22" x2="587.41" y2="19.27"/><line class="cls-7" x1="255.54" y1="55.69" x2="580.24" y2="29.57"/><polygon class="cls-5" points="257.53 58.16 247.6 56.33 257.11 52.94 257.53 58.16"/><polygon class="cls-5" points="578.67 32.32 588.18 28.93 578.25 27.1 578.67 32.32"/><text class="cls-3" transform="translate(356.55 27.32) rotate(-4.6)"><tspan x="0" y="0">TPI -</tspan><tspan class="cls-1" x="26" y="0"> </tspan><tspan x="29.12" y="0">Threads per Inch</tspan><tspan x="-58.7" y="14.4">= Number of</tspan><tspan class="cls-1" x="7.67" y="14.4"> </tspan><tspan x="10.79" y="14.4">Threads each Inch (= 25,4 mm)</tspan></text><text class="cls-4" transform="translate(61.9 40.85) rotate(-4.6)"><tspan x="0" y="0">60˚</tspan></text><line class="cls-7" x1="79.68" y1="130.23" x2="25.11" y2="51.13"/><line class="cls-7" x1="125.8" y1="43.03" x2="84.58" y2="129.84"/><path class="cls-7" d="m38.34,56.29c10.95-6.38,23.46-10.46,36.93-11.55,13.47-1.08,26.46.95,38.28,5.49"/><polygon class="cls-5" points="41.29 57.61 31.64 60.61 38.5 53.19 41.29 57.61"/><polygon class="cls-5" points="110.86 52.01 120.86 53.43 112.91 47.2 110.86 52.01"/><line class="cls-7" x1="1.33" y1="144.93" x2="509.66" y2="144.93"/><line class="cls-7" x1="1.33" y1="144.93" x2="508.02" y2="104.17"/><text class="cls-4" transform="translate(457.82 133.26)"><tspan x="0" y="0">1˚ 47´</tspan></text></g></svg>